<svg xmlns="http://www.w3.org/2000/svg" xml:space="preserve" x="0px" y="0px" viewBox="0 0 200 182.203"><path fill="#FFF" d="M38.6 85.2c0 5.1-1.4 7.6-4.2 7.6-2.8 0-6.9-3.6-12.2-10.8-5.3-7.2-8-11.7-8-13.4 0-.9.8-1.4 2.4-1.4 5.3 0 10.3 1.7 15 5.2 4.7 3.5 7 7.7 7 12.8zm17.8 10.6c0 1.2-.5 2.9-1.4 5-8.3 20.1-13.7 34-16.4 41.5-2.7 7.5-4.4 13.6-5.2 18.2-.8 4.6-2.1 6.9-4 6.9s-4.6-3.4-8.1-10.1c-3.5-6.7-5.3-11-5.3-12.9 0-1.1 1-1.7 2.9-1.8 1.9-.1 3.6-.9 5-2.3s4.6-5.9 9.7-13.4S44.4 110 50.8 98.8c1.9-3.1 3.4-4.6 4.6-4.6.7 0 1 .5 1 1.6zM34.8 26.4c1.7 0 5.2 1 10.5 3S54 34 55.7 37.3c1.7 3.3 2.5 6.5 2.5 9.7 0 3.3-1.5 5-4.4 5-3.1 0-7.3-3.6-12.7-10.8C35.7 34 33 29.5 33 27.8c0-.9.6-1.4 1.8-1.4zm73.8 69.4c-5.5 1.1-11.9 1.8-19.2 2.2-.5 2.7-1.3 4-2.2 4-.9 0-2.1-.8-3.6-2.5s-2.4-3.6-2.8-5.9c-.4-2.3-1.3-4.9-2.7-7.9-1.4-3-2.7-5.2-3.9-6.7-1.2-1.5-1.8-2.7-1.8-3.6 0-.8.9-1.2 2.8-1.2s4.9.6 9 1.8c7.6-.8 15.7-1.9 24.4-3.4-.7-5.1-1.5-8.5-2.6-10.4-.3 0-.8.1-1.5.2s-1.2.2-1.5.2c-1.6 1.6-2.7 2.4-3.4 2.4-.8 0-1.4-.8-1.8-2.5-.4-1.7-1.1-7.1-2-16.3-6.8 1.6-11.8 2.4-15 2.4-3.2 0-6-.6-8.4-1.7-2.4-1.1-3.6-2-3.6-2.7 0-.7 2-1.1 5.9-1.4 3.9-.3 10.7-1.3 20.3-3-1.5-7.3-3.4-11.9-5.9-13.8-2.5-1.9-3.7-3.5-3.7-5s1-2.2 3-2.2c1.9 0 4.2.6 6.9 1.9 2.7 1.3 4.8 2.5 6.1 3.6 1.3 1.1 2 2.2 2 3.3 0 1.1-.1 2.2-.2 3.3-.1 1.1-.2 3.7-.2 7.7 9.2-1.6 17.7-3.1 25.6-4.6.4-3.3.6-6.2.6-8.6 0-4.4-.7-7.4-2-9-1.3-1.6-2-2.9-2-4 0-1.7 1.2-2.6 3.6-2.6 2.4 0 5.7 1.1 9.8 3.4 4.1 2.3 6.2 4.3 6.2 6 0 .7-.5 1.8-1.6 3.5s-2.4 4.8-4 9.3c7.9-1.6 13.7-2.4 17.6-2.4 3.7 0 6.9.7 9.4 2.1 2.5 1.4 3.8 2.8 3.8 4.1 0 1.9-2.7 2.8-8 2.8s-13.9.5-25.6 1.6c-1.5 5.2-2.2 8.4-2.2 9.6 0 1.3.4 2.2 1.2 2.7.8.5 1.2 1.1 1.2 1.9 0 1.7-1.3 2.7-4 3-1.2.1-3.8.6-7.8 1.5s-7.3 1.5-10 1.9c3.5 3.1 5.2 5.9 5.2 8.4 0 .4-.1.8-.2 1.2 9.5-2.4 15.4-4.2 17.7-5.3 2.3-1.1 4.7-1.7 7.1-1.7 2.3 0 5.3 1 9.2 3.1 3.9 2.1 5.8 4.1 5.8 6.1 0 1.2-.6 2-1.7 2.5s-3.1 1.7-6 3.8c-2.9 2.1-4.3 3.6-4.3 4.5 0 .9.4 1.8 1.1 2.5.7.7 1.1 1.4 1.1 1.9 0 1.3-2 2.1-6.1 2.4-4.1.3-12.7 1.5-25.9 3.6-.3 4.3-.5 7.6-.8 10 10.4-2.3 16.7-3.4 18.8-3.4 2 0 4 .4 6 1.1 2 .7 3 1.6 3 2.5 0 .9-.4 1.6-1.2 2-.8.4-4.6 1.3-11.3 2.7-6.7 1.4-12 2.4-15.9 2.9-.5 5.2-.9 8.6-1.2 10.2 13.2-1.6 23.2-2.9 30-4 5.9-1.1 10.9-1.6 15.2-1.6 4.3 0 8.1 1.2 11.5 3.5 3.4 2.3 5.1 4.3 5.1 5.9 0 1.6-1.7 2.4-5 2.4-1.2 0-2.6-.1-4.2-.4-3.9-.7-10.9-1-21-1s-20.3.3-30.6 1c8.4 8.9 17.2 16.6 26.3 22.9 9.1 6.3 21.8 11.5 37.9 15.5 3.9.8 5.8 1.9 5.8 3.2 0 .7-.5 1.2-1.6 1.5-1.1.3-5.1.7-12.1 1.1-7 .4-12.6.6-16.9.6-4.4 0-7.7-.3-9.9-.9-2.2-.6-3.9-1.5-5.1-2.7-1.2-1.2-5.1-6-11.7-14.3S116.8 139 112.4 133c-2.8 7.7-7.2 14.6-13.2 20.6-6 6-12.7 10.6-20.2 13.7-7.5 3.1-13.7 4.7-18.6 4.7-2.1 0-3.2-.5-3.2-1.6 0-.9 1.1-1.7 3.2-2.4 11.5-4.4 21-10 28.6-16.7 7.6-6.7 12.7-14.2 15.2-22.3-8.4 1.2-15.6 2.4-21.6 3.6-6 1.2-10.3 1.8-13 1.8-2.7 0-5.6-.7-8.8-2.2-3.2-1.5-4.8-2.7-4.8-3.8 0-.9 1.5-1.4 4.6-1.4 8.5 0 23.5-1.3 44.8-4 .8-4.5 1.3-7.9 1.6-10.2-5.3.7-9.7 1-13.2 1-6.9 0-10.4-.9-10.4-2.8 0-1.1 1-1.7 3-2 6.1-.7 13.3-1.8 21.4-3.4zm.2-5.6c.1-1.7.2-3.6.2-5.6 0-1.9-.1-4.1-.2-6.8-7.5 1.1-14.7 2.3-21.8 3.6.8 2.8 1.5 6.7 2.2 11.8 7-.8 13.5-1.8 19.6-3zm18.8-48.8c-9.6 1.2-17.7 2.4-24.4 3.6.3 2.7.5 6.9.8 12.6 11.7-2.9 18.1-4.4 19-4.5.9-.1 1.7-.6 2.4-1.7s1.4-4.4 2.2-10zm-9 34.6-.6 12.4c3.5-.7 7.1-1.4 11-2.2 3.9-.8 6.4-1.5 7.5-2.1 1.1-.6 2.1-1.8 2.9-3.7.8-1.9 1.2-3.5 1.2-5s-1.1-2.2-3.2-2.2-8.4.9-18.8 2.8z"/></svg>